<svg width="26" height="22" viewBox="0 0 26 22" fill="none" xmlns="http://www.w3.org/2000/svg">
<path d="M19.7072 1.9528C19.7655 1.7461 20.0437 1.53568 20.2584 1.53568H24.872C25.287 1.53568 25.6235 1.19932 25.6235 0.784198C25.6235 0.369079 25.287 0.0327148 24.872 0.0327148H20.2584C19.3776 0.0327148 18.5002 0.696625 18.2608 1.5442L17.0145 5.9552C16.872 5.91552 16.7219 5.89258 16.5658 5.89258H1.65979C1.18536 5.89258 0.734966 6.08937 0.424153 6.43244C0.11334 6.77552 -0.0382591 7.24304 0.00843302 7.71497L0.703605 14.7617C0.796287 15.7008 1.60809 16.4365 2.55185 16.4365H14.1212C15.0056 16.4365 15.8792 15.7677 16.1101 14.914L17.5596 9.554L19.7072 1.9528ZM14.6591 14.5217C14.604 14.7257 14.3324 14.9335 14.1211 14.9335H2.55175C2.38673 14.9335 2.21549 14.7783 2.19926 14.6141L1.50398 7.56738C1.49877 7.51528 1.5105 7.47179 1.53775 7.44173C1.5651 7.41157 1.60719 7.39564 1.65969 7.39564H16.5658C16.5731 7.39564 16.5795 7.39594 16.5851 7.39634C16.5841 7.40196 16.5826 7.40817 16.5807 7.41518L14.6591 14.5217Z" fill="white"/>
<path d="M4.74535 17.2922C3.45641 17.2922 2.40784 18.3408 2.40784 19.6296C2.40784 20.9185 3.45641 21.9671 4.74535 21.9671C6.03419 21.9671 7.08276 20.9185 7.08276 19.6296C7.08276 18.3408 6.03419 17.2922 4.74535 17.2922ZM4.74535 20.4641C4.28514 20.4641 3.9108 20.0898 3.9108 19.6296C3.9108 19.1695 4.28514 18.7952 4.74535 18.7952C5.20546 18.7952 5.5798 19.1695 5.5798 19.6296C5.5798 20.0898 5.20546 20.4641 4.74535 20.4641Z" fill="white"/>
<path d="M12.1568 17.2922C10.868 17.2922 9.8194 18.3408 9.8194 19.6296C9.8194 20.9185 10.868 21.9671 12.1568 21.9671C13.4457 21.9671 14.4942 20.9185 14.4942 19.6296C14.4942 18.3408 13.4458 17.2922 12.1568 17.2922ZM12.1568 20.4641C11.6967 20.4641 11.3224 20.0898 11.3224 19.6296C11.3224 19.1695 11.6967 18.7952 12.1568 18.7952C12.6169 18.7952 12.9913 19.1695 12.9913 19.6296C12.9913 20.0898 12.617 20.4641 12.1568 20.4641Z" fill="white"/>
<path d="M25.499 6.14331H20.074C19.7973 6.14331 19.573 6.36755 19.573 6.6443C19.573 6.92105 19.7973 7.14529 20.074 7.14529H25.499C25.7756 7.14529 26 6.92105 26 6.6443C26 6.36755 25.7756 6.14331 25.499 6.14331Z" fill="white"/>
<path d="M23.995 8.4751H19.1718C18.8951 8.4751 18.6708 8.69934 18.6708 8.97609C18.6708 9.25283 18.8951 9.47708 19.1718 9.47708H23.995C24.2716 9.47708 24.496 9.25283 24.496 8.97609C24.496 8.69934 24.2716 8.4751 23.995 8.4751Z" fill="white"/>
<path d="M22.6915 10.8074H18.5704C18.2937 10.8074 18.0694 11.0316 18.0694 11.3084C18.0694 11.5851 18.2937 11.8093 18.5704 11.8093H22.6915C22.9682 11.8093 23.1925 11.5851 23.1925 11.3084C23.1925 11.0316 22.9682 10.8074 22.6915 10.8074Z" fill="white"/>
</svg>
