<svg width="48" height="48" viewBox="0 0 48 48" fill="none" xmlns="http://www.w3.org/2000/svg">
<g clip-path="url(#clip0)">
<path d="M37.0848 9.18219L34.7692 12.157C39.7607 16.041 42.2505 22.3291 41.2678 28.5691C40.5479 33.1479 38.0876 37.1723 34.3406 39.9017C30.5924 42.6295 26.0074 43.7383 21.4286 43.0147C11.9764 41.5264 5.49537 32.6259 6.98118 23.173C7.70105 18.5937 10.1621 14.5691 13.9096 11.8404C17.1814 9.45864 21.0912 8.31468 25.0782 8.54159L21.8195 11.9603L24.2369 14.2673L29.381 8.86684L29.3823 8.86882L31.6868 6.44887L29.2711 4.14435L29.2698 4.1451L23.8713 -1L21.5651 1.41995L25.0826 4.77034C20.301 4.54417 15.6174 5.9351 11.6913 8.79377C7.13006 12.1149 4.13515 17.0133 3.25823 22.5879C1.4494 34.0932 9.33722 44.9281 20.8425 46.7387C21.9545 46.914 23.066 47 24.1703 47C28.602 47 32.9081 45.6071 36.5589 42.9483C41.1206 39.6267 44.115 34.7283 44.992 29.1549C46.1882 21.5614 43.1581 13.9079 37.0848 9.18219Z" fill="#2BBEF9"/>
<path d="M26.1944 36.6458V36.6451H26.1947V34.4758C28.7667 34.1887 31.2691 32.5639 31.2691 29.4793C31.2691 25.2882 27.3721 24.8076 24.5255 24.4571C22.7055 24.2396 21.3126 23.9872 21.3126 22.8846C21.3126 21.3517 23.4732 21.1865 24.4024 21.1865C25.7815 21.1865 27.2529 21.8348 27.7528 22.6622L27.898 22.9027L30.7571 21.5796L30.6157 21.2913C29.5502 19.1131 27.6408 18.4829 26.1939 18.2285V16.3186H22.846V18.2203C19.7292 18.6801 17.8783 20.4099 17.8783 22.8846C17.8783 26.9199 21.5423 27.3294 24.2154 27.6291C26.5977 27.9101 27.7067 28.4986 27.7067 29.4793C27.7067 31.3528 25.1121 31.4992 24.3167 31.4992C22.5463 31.4992 20.8392 30.6159 20.3455 29.4429L20.2229 29.1533L17.1168 30.4702L17.2406 30.7598C18.1604 32.9127 20.1451 34.2618 22.8465 34.5808V36.6458H26.1944Z" fill="#2BBEF9"/>
</g>
<defs>
<clipPath id="clip0">
<rect width="48" height="48" fill="white"/>
</clipPath>
</defs>
</svg>
