<svg width="48" height="48" viewBox="0 0 48 48" fill="none" xmlns="http://www.w3.org/2000/svg">
<g clip-path="url(#clip0)">
<path d="M20.875 8.97827H1V5.22827H20.875V8.97827ZM17.125 12.7283H1V16.4783H17.125V12.7283ZM13.375 20.2283H1V23.9783H13.375V20.2283ZM49 41.1345H41.1774C40.4036 43.3168 38.3195 44.8845 35.875 44.8845C33.4305 44.8845 31.3464 43.3168 30.5726 41.1345H18.9586C18.1848 43.3168 16.1007 44.8845 13.6562 44.8845C11.2118 44.8845 9.12769 43.3168 8.35388 41.1345H6.625C3.52319 41.1345 1 38.611 1 35.5095V27.7283H4.75V35.5095C4.75 36.5433 5.59119 37.3845 6.625 37.3845H8.35388C9.12769 35.2019 11.2118 33.6345 13.6562 33.6345C16.1007 33.6345 18.1848 35.2019 18.9586 37.3845H30.25V10.8438C30.25 9.80994 29.4088 8.96875 28.375 8.96875H24.625V5.21875H28.375C31.4768 5.21875 34 7.74194 34 10.8438V14.6033H37.757C39.5115 14.6033 41.1902 15.4393 42.2471 16.8397L47.4865 23.782C48.4624 25.0751 49 26.6798 49 28.2999V41.1345ZM34 18.3533V25.3845H43.9976L39.2537 19.0985C38.9014 18.6316 38.3418 18.3533 37.757 18.3533H34ZM15.5312 39.2595C15.5312 38.2253 14.6901 37.3845 13.6562 37.3845C12.6224 37.3845 11.7812 38.2253 11.7812 39.2595C11.7812 40.2933 12.6224 41.1345 13.6562 41.1345C14.6901 41.1345 15.5312 40.2933 15.5312 39.2595ZM37.75 39.2595C37.75 38.2253 36.9088 37.3845 35.875 37.3845C34.8412 37.3845 34 38.2253 34 39.2595C34 40.2933 34.8412 41.1345 35.875 41.1345C36.9088 41.1345 37.75 40.2933 37.75 39.2595ZM45.25 37.3845V29.1345H34V33.9568C34.587 33.7488 35.2177 33.6345 35.875 33.6345C38.3195 33.6345 40.4036 35.2019 41.1774 37.3845H45.25Z" fill="#2BBEF9"/>
</g>
<defs>
<clipPath id="clip0">
<rect width="48" height="48" fill="white"/>
</clipPath>
</defs>
</svg>
