<svg width="48" height="48" viewBox="0 0 48 48" fill="none" xmlns="http://www.w3.org/2000/svg">
<g clip-path="url(#clip0)">
<path d="M31.4375 13.1562H14.5625C13.7859 13.1562 13.1562 13.7859 13.1562 14.5625V31.4375C13.1562 32.2141 13.7859 32.8438 14.5625 32.8438H31.4375C32.2141 32.8438 32.8438 32.2141 32.8438 31.4375V14.5625C32.8438 13.7859 32.2141 13.1562 31.4375 13.1562ZM21.5938 15.9688H24.4062V18.7812H21.5938V15.9688ZM30.0312 30.0312H15.9688V15.9688H18.7812V20.1875C18.7812 20.9641 19.4109 21.5938 20.1875 21.5938H25.8125C26.5891 21.5938 27.2188 20.9641 27.2188 20.1875V15.9688H30.0312V30.0312Z" fill="#2BBEF9"/>
<path d="M45.5938 21.5938H41.2277C40.5428 12.6321 33.3679 5.45722 24.4062 4.77228V0.40625C24.4062 -0.370375 23.7766 -1 23 -1C22.2234 -1 21.5938 -0.370375 21.5938 0.40625V4.77228C12.6321 5.45722 5.45722 12.6321 4.77228 21.5938H0.40625C-0.370375 21.5938 -1 22.2234 -1 23C-1 23.7766 -0.370375 24.4062 0.40625 24.4062H4.77228C5.45722 33.3679 12.6321 40.5428 21.5938 41.2277V45.5938C21.5938 46.3704 22.2234 47 23 47C23.7766 47 24.4062 46.3704 24.4062 45.5938V41.2277C33.3679 40.5428 40.5428 33.3679 41.2277 24.4062H45.5938C46.3704 24.4062 47 23.7766 47 23C47 22.2234 46.3704 21.5938 45.5938 21.5938ZM24.4062 38.4042V37.0625C24.4062 36.2859 23.7766 35.6562 23 35.6562C22.2234 35.6562 21.5938 36.2859 21.5938 37.0625V38.4042C14.1842 37.7332 8.26681 31.8158 7.59584 24.4062H8.9375C9.71413 24.4062 10.3438 23.7766 10.3438 23C10.3438 22.2234 9.71413 21.5938 8.9375 21.5938H7.59584C8.26681 14.1842 14.1842 8.26681 21.5938 7.59584V8.9375C21.5938 9.71413 22.2234 10.3438 23 10.3438C23.7766 10.3438 24.4062 9.71413 24.4062 8.9375V7.59584C31.8158 8.26681 37.7332 14.1842 38.4042 21.5938H37.0625C36.2859 21.5938 35.6562 22.2234 35.6562 23C35.6562 23.7766 36.2859 24.4062 37.0625 24.4062H38.4042C37.7332 31.8158 31.8158 37.7332 24.4062 38.4042Z" fill="#2BBEF9"/>
<path d="M3.3125 10.3438C4.08913 10.3438 4.71875 9.71413 4.71875 8.9375V4.71875H8.9375C9.71413 4.71875 10.3438 4.08913 10.3438 3.3125C10.3438 2.53587 9.71413 1.90625 8.9375 1.90625H3.3125C2.53587 1.90625 1.90625 2.53587 1.90625 3.3125V8.9375C1.90625 9.71413 2.53587 10.3438 3.3125 10.3438Z" fill="#2BBEF9"/>
<path d="M8.9375 41.2812H4.71875V37.0625C4.71875 36.2859 4.08913 35.6562 3.3125 35.6562C2.53587 35.6562 1.90625 36.2859 1.90625 37.0625V42.6875C1.90625 43.4641 2.53587 44.0938 3.3125 44.0938H8.9375C9.71413 44.0938 10.3438 43.4641 10.3438 42.6875C10.3438 41.9109 9.71413 41.2812 8.9375 41.2812Z" fill="#2BBEF9"/>
<path d="M42.6875 35.6562C41.9109 35.6562 41.2812 36.2859 41.2812 37.0625V41.2812H37.0625C36.2859 41.2812 35.6562 41.9109 35.6562 42.6875C35.6562 43.4641 36.2859 44.0938 37.0625 44.0938H42.6875C43.4641 44.0938 44.0938 43.4641 44.0938 42.6875V37.0625C44.0938 36.2859 43.4641 35.6562 42.6875 35.6562Z" fill="#2BBEF9"/>
<path d="M37.0625 4.71875H41.2812V8.9375C41.2812 9.71413 41.9109 10.3438 42.6875 10.3438C43.4641 10.3438 44.0938 9.71413 44.0938 8.9375V3.3125C44.0938 2.53587 43.4641 1.90625 42.6875 1.90625H37.0625C36.2859 1.90625 35.6562 2.53587 35.6562 3.3125C35.6562 4.08913 36.2859 4.71875 37.0625 4.71875Z" fill="#2BBEF9"/>
</g>
<defs>
<clipPath id="clip0">
<rect width="48" height="48" fill="white"/>
</clipPath>
</defs>
</svg>
