<svg width="52" height="52" viewBox="0 0 52 52" fill="none" xmlns="http://www.w3.org/2000/svg">
<path d="M15.2736 32.1179H6.29578C6.7228 30.5107 7.81571 29.145 9.35542 28.375L12.338 26.8838C14.1487 25.9784 15.2735 24.1585 15.2735 22.1341C15.2735 19.2059 12.8913 16.8237 9.96321 16.8237H8.34866C5.42055 16.8237 3.03834 19.2059 3.03834 22.1341V22.9414H6.09716V22.1341C6.09716 20.8926 7.10719 19.8826 8.34866 19.8826H9.96331C11.2048 19.8826 12.2148 20.8926 12.2148 22.1341C12.2148 22.9924 11.7379 23.764 10.9702 24.1479L7.98752 25.6392C4.93471 27.1656 3.03834 30.2341 3.03834 33.6473V35.1767H15.2736V32.1179Z" fill="#2BBEF9"/>
<path d="M25.9796 24.4708H23.8717C22.504 24.4708 21.3913 23.3581 21.3913 21.9904V16.8237H18.3325V21.9904C18.3325 25.0447 20.8174 27.5296 23.8717 27.5296H25.9796V35.1767H29.0384V16.8237H25.9796V24.4708Z" fill="#2BBEF9"/>
<path d="M43.2432 35.123L48.9617 16.8237H37.1952V19.8826H44.8012L40.3236 34.2107L43.2432 35.123Z" fill="#2BBEF9"/>
<path d="M32.0972 24.4707H36.6855V27.5295H32.0972V24.4707Z" fill="#2BBEF9"/>
<path d="M24.4501 0H27.5089V6.11765H24.4501V0Z" fill="#2BBEF9"/>
<path d="M17.5108 3.35229L20.4657 2.56006L21.522 6.49992L18.5672 7.29216L17.5108 3.35229Z" fill="#2BBEF9"/>
<path d="M11.1449 6.42358L13.7938 4.89417L15.8331 8.42618L13.1841 9.95559L11.1449 6.42358Z" fill="#2BBEF9"/>
<path d="M5.79056 11.0342L7.95314 8.87159L10.8366 11.755L8.67401 13.9176L5.79056 11.0342Z" fill="#2BBEF9"/>
<path d="M30.4464 6.5022L31.5027 2.56233L34.4575 3.35457L33.4012 7.29443L30.4464 6.5022Z" fill="#2BBEF9"/>
<path d="M36.1252 8.42749L38.1645 4.89548L40.8134 6.42489L38.7742 9.9569L36.1252 8.42749Z" fill="#2BBEF9"/>
<path d="M41.1144 11.759L43.9978 8.87559L46.1604 11.0382L43.277 13.9216L41.1144 11.759Z" fill="#2BBEF9"/>
<path d="M24.4501 45.8823H27.5089V52H24.4501V45.8823Z" fill="#2BBEF9"/>
<path d="M17.5156 48.6528L18.572 44.713L21.5268 45.5052L20.4705 49.4451L17.5156 48.6528Z" fill="#2BBEF9"/>
<path d="M11.1441 45.5762L13.1833 42.0442L15.8323 43.5736L13.793 47.1056L11.1441 45.5762Z" fill="#2BBEF9"/>
<path d="M5.78741 40.9619L8.67086 38.0785L10.8335 40.2411L7.95 43.1245L5.78741 40.9619Z" fill="#2BBEF9"/>
<path d="M30.4506 45.4939L33.4054 44.7017L34.4618 48.6415L31.5069 49.4338L30.4506 45.4939Z" fill="#2BBEF9"/>
<path d="M36.1248 43.572L38.7737 42.0426L40.813 45.5746L38.164 47.104L36.1248 43.572Z" fill="#2BBEF9"/>
<path d="M41.1113 40.2449L43.2739 38.0823L46.1574 40.9657L43.9948 43.1283L41.1113 40.2449Z" fill="#2BBEF9"/>
</svg>
