<svg width="18" height="15" viewBox="0 0 18 15" fill="none" xmlns="http://www.w3.org/2000/svg">
<path d="M0 12.75C0 12.3398 0.339844 12 0.75 12H17.25C17.6602 12 18 12.3398 18 12.75V14.25C18 14.6602 17.6602 15 17.25 15H0.75C0.339844 15 0 14.6602 0 14.25V12.75ZM0 6.75C0 6.33984 0.339844 6 0.75 6H12.25C12.6602 6 13 6.33984 13 6.75V8.25C13 8.66016 12.6602 9 12.25 9H0.75C0.339844 9 0 8.66016 0 8.25V6.75ZM0 0.75C0 0.339843 0.339844 0 0.75 0H7.25C7.66016 0 8 0.339843 8 0.75V2.25C8 2.66016 7.66016 3 7.25 3H0.75C0.339844 3 0 2.66016 0 2.25V0.75Z" fill="white"/>
</svg>
