<svg xmlns="http://www.w3.org/2000/svg" viewBox="0 0 455.111 455.111" enable-background="new 0 0 455.111 455.111"><path fill="#D34178" d="M406.76 455.1H48.36C21.33 455.1 0 433.8 0 406.77V48.36C0 21.33 21.33 0 48.36 0h358.4c27.02 0 48.35 21.33 48.35 48.36v358.4c0 27.02-21.32 48.35-48.34 48.35z"/><path fill="#E84E89" d="M366.93 0c-17.06 73.96-61.15 153.6-129.42 221.87C165 294.4 78.23 339.9 0 354.13V48.36C0 21.33 21.33 0 48.36 0h318.57z"/><g fill="#fff"><path d="M287.3 174.93h-18.5v71.1c0 7.12-5.7 12.8-12.8 12.8h-56.9c-7.1 0-12.8-5.67-12.8-12.8v-71.1h-18.48c-9.95 0-15.64-11.38-9.95-19.9l59.73-79.65c5.7-7.1 15.64-7.1 19.9 0l59.74 79.64c5.7 8.54 0 19.9-9.95 19.9zM136.53 304.36v78.22h-22.75v-78.22H86.76v-18.5h76.8v18.5h-27.03zM258.84 369.78C248.9 379.73 237.5 384 221.87 384c-14.23 0-27.03-4.27-36.98-14.22-9.97-9.96-14.23-21.33-14.23-35.56s4.26-25.6 14.22-35.55 21.32-14.23 36.97-14.23c14.22 0 27.02 4.27 36.97 14.23s14.23 21.33 14.23 35.55-4.27 25.6-14.23 35.56zm-8.53-35.56c0-8.53-2.83-15.64-8.52-22.75-5.7-5.7-12.8-8.54-19.9-8.54-8.55 0-15.66 2.85-19.92 8.54-5.7 5.68-8.54 12.8-8.54 22.75 0 8.53 2.85 15.65 8.54 22.76 5.7 5.7 12.8 8.53 19.9 8.53 8.54 0 15.65-2.83 19.92-8.52 5.7-7.1 8.53-14.22 8.53-22.76zM358.4 294.4c7.1 5.7 9.96 14.22 9.96 27.02 0 11.38-2.85 21.33-9.96 27.02-7.1 5.7-17.07 8.54-32.7 8.54h-12.8V384h-21.34v-96.7h34.13c15.63-1.43 25.6 1.4 32.7 7.1zm-15.64 38.4c2.84-2.84 4.26-7.1 4.26-12.8s-1.42-9.96-5.7-11.38c-2.83-2.84-8.52-2.84-15.63-2.84h-12.8v32.7h14.2c7.12-1.4 12.8-2.84 15.66-5.68z"/></g></svg>