<svg width="204" height="100" viewBox="0 0 204 100" fill="none" xmlns="http://www.w3.org/2000/svg">
<g clip-path="url(#clip0)">
<path d="M77.5316 36.375C79.1562 36.375 79.9685 37.0297 79.9685 38.2981C79.9685 38.6254 79.9278 38.9937 79.806 39.4028L73.7139 62.3161H66.6878L71.8457 42.9216C71.8863 42.8398 71.8863 42.758 71.8863 42.6761C71.8863 42.4716 71.7645 42.3897 71.5614 42.3897H65.8349L60.5551 62.3161H53.5289L60.4333 36.375H77.5316Z" fill="white"/>
<path d="M83.38 62.3161H76.3538L83.2582 36.375H90.2843L83.38 62.3161Z" fill="white"/>
<path d="M107.017 59.3292C106.489 61.3341 105.19 62.357 103.159 62.357H89.1065C87.482 62.357 86.6697 61.7023 86.6697 60.4339C86.6697 60.1066 86.7103 59.7383 86.8321 59.3292L92.1525 39.4028C92.6805 37.3979 93.9802 36.375 96.0108 36.375H110.063C111.688 36.375 112.5 37.0297 112.5 38.2981C112.5 38.6254 112.459 38.9937 112.338 39.4028L107.017 59.3292ZM94.7924 55.7694C94.7518 55.8513 94.7518 55.9331 94.7518 56.0149C94.7518 56.2195 94.8737 56.3013 95.0767 56.3013H100.357C100.641 56.3013 100.844 56.1377 100.925 55.7694L104.337 42.9216C104.377 42.8398 104.377 42.758 104.377 42.7171C104.377 42.5125 104.255 42.3897 104.052 42.3897H98.7726C98.4883 42.3897 98.2852 42.5534 98.204 42.9216L94.7924 55.7694Z" fill="white"/>
<path d="M132.888 36.375C134.513 36.375 135.325 37.0297 135.325 38.2981C135.325 38.6254 135.284 38.9937 135.162 39.4028L129.07 62.3161H122.044L127.202 42.9216C127.243 42.8398 127.243 42.758 127.243 42.6761C127.243 42.4716 127.121 42.3897 126.918 42.3897H121.191L115.912 62.3161H108.885L115.79 36.375H132.888Z" fill="white"/>
<path d="M144.463 42.3897H137.031L138.615 36.375H157.947L156.363 42.3897H151.489L146.209 62.3161H139.183L144.463 42.3897Z" fill="#FFC93B"/>
<path d="M160.546 36.375H180.975L176.385 42.3897H165.988L164.77 46.9724H174.436L173.177 51.6778H163.511L162.292 56.2604H175.695L171.106 62.2752H153.682L160.546 36.375Z" fill="#FFC93B"/>
<path d="M186.986 49.2637L183.533 62.3161H176.507L183.412 36.375H190.438L188.285 44.4356L195.88 36.375H203.922L193.931 46.4814L198.236 62.3161H189.788L186.986 49.2637Z" fill="#FFC93B"/>
<path d="M37.324 26.3094C37.324 26.3094 54.2193 4.2554 66.3629 0.368329C75.3385 -2.49583 69.4089 13.1343 69.4089 13.1343C69.4089 13.1343 71.602 -3.51874 53.3258 12.5205C43.8222 20.8675 37.324 26.3094 37.324 26.3094Z" fill="#FFC93B"/>
<path d="M55.2753 38.7071C55.2753 38.7071 67.1751 22.7497 67.7843 13.7889C68.3935 4.82823 59.4991 11.0066 57.8339 12.1523C57.8339 12.1523 63.0325 10.8839 63.926 15.8757C64.7383 20.3356 57.509 35.4747 55.2753 38.7071Z" fill="white"/>
<path d="M1.259 88.2978C1.259 88.2978 -4.54877 104.337 8.77254 98.8543C21.2003 93.7397 32.6128 76.3911 32.6128 76.3911C32.6128 76.3911 16.8547 96.0311 4.62994 95.5401C4.67055 95.5401 1.09654 95.3355 1.259 88.2978Z" fill="white"/>
<path d="M10.7626 73.6907C10.7626 73.6907 3.77707 86.0475 6.05143 88.9116C7.75721 91.0393 11.2094 89.8936 11.2094 89.8936C11.2094 89.8936 3.0054 96.1539 3.0054 88.9525C3.0054 88.9525 2.92418 85.5565 10.7626 73.6907Z" fill="#FFC93B"/>
<path d="M45.9341 64.6482C41.1417 65.0573 36.9179 61.4567 36.5117 56.6285C36.4711 56.0966 36.4711 55.5647 36.5117 55.0328L34.481 62.6842C34.3186 63.2979 33.9937 63.5843 33.4657 63.5843H24.3682C24.0027 63.5843 23.7996 63.4207 23.7996 63.0524C23.7996 62.9297 23.7996 62.8069 23.8402 62.6433L32.694 29.2554H20.5911L10.1128 68.7398C9.95033 69.4354 9.82849 70.0492 9.82849 70.622C9.82849 72.8315 11.25 73.8953 14.0523 73.8953H38.2581C41.7509 73.8953 43.9846 72.1768 44.9188 68.6989L46.0153 64.5254C45.9747 64.6482 45.9341 64.6482 45.9341 64.6482Z" fill="white"/>
<path d="M44.4314 47.1358C46.5839 46.9313 48.6146 47.5859 50.2798 48.7725L55.4377 29.3372H43.3348L37.2427 52.2504C38.5018 49.4681 41.1823 47.4223 44.4314 47.1358Z" fill="white"/>
<path d="M51.8637 55.3193C52.1887 59.0427 49.4269 62.316 45.7311 62.6434C42.0352 62.9707 38.7861 60.1884 38.4612 56.465C38.1363 52.7416 40.898 49.4682 44.5939 49.1409C48.2897 48.8136 51.5795 51.5959 51.8637 55.3193Z" fill="#FFC947"/>
<path d="M58.565 71.4403C58.8087 70.3356 59.0523 69.2308 59.2148 68.5762C58.8087 69.4763 57.3466 71.8904 56.1281 74.018H55.2753C55.0316 72.2996 54.6254 69.5991 54.5442 68.6171C54.4224 69.3126 54.2193 70.5811 53.9756 71.6449L53.4476 74.059H52.5541L53.8538 67.9624H55.2346C55.5189 69.8446 55.9657 72.3405 55.9657 72.8315C56.2906 72.2177 57.7933 69.7627 58.8493 67.9624H60.2301L58.9305 74.059H57.9964L58.565 71.4403Z" fill="white"/>
<path d="M63.6823 72.2588L62.5857 74.0182H61.5704L65.3068 67.9216H66.4846L67.7437 74.0182H66.7689L66.4034 72.2588H63.6823ZM66.241 71.4405C65.916 69.8856 65.7536 69.0264 65.713 68.6172C65.5099 69.0673 64.9413 70.0493 64.0884 71.4405H66.241Z" fill="white"/>
<path d="M71.5208 67.9216H72.4549L71.8457 70.8267C72.9016 70.0084 74.4043 68.9445 75.704 67.9216H76.9224L73.4702 70.5403L75.8258 74.0182H74.6886L72.7392 71.0722L71.602 71.8496L71.1552 74.0591H70.2211L71.5208 67.9216Z" fill="white"/>
<path d="M83.0551 71.1949H79.6842L79.278 73.1998H83.1363L82.852 73.9772H78.1815L79.4811 67.8806H83.9486L83.7862 68.658H80.2528L79.8872 70.3765H83.2582L83.0551 71.1949Z" fill="white"/>
<path d="M91.2997 74.0182L91.787 71.7269C91.787 71.645 91.787 71.6041 91.7464 71.5632L90.1625 67.9216H91.1778C91.787 69.3537 92.2338 70.4585 92.3962 70.9495C92.7211 70.4994 94.0614 68.9445 94.9143 67.9216H95.9702L92.7617 71.6859C92.7211 71.7269 92.7211 71.7678 92.6805 71.8496L92.2338 74.0182H91.2997Z" fill="white"/>
<path d="M103.565 70.4993C103.565 72.3815 102.428 74.1409 100.072 74.1409C98.3664 74.1409 97.3511 72.9952 97.3511 71.4404C97.3511 69.6401 98.5289 67.7988 100.844 67.7988C102.509 67.7988 103.565 68.9036 103.565 70.4993ZM98.3664 71.3586C98.3664 72.5451 98.9756 73.3635 100.194 73.3635C101.778 73.3635 102.55 72.0132 102.55 70.4993C102.55 69.3537 101.94 68.5762 100.722 68.5762C99.3005 68.5762 98.3664 69.8856 98.3664 71.3586Z" fill="white"/>
<path d="M108.114 67.9216L107.383 71.4405C107.058 72.9953 107.911 73.3635 108.764 73.3635C109.901 73.3635 110.388 72.8316 110.672 71.4814L111.444 67.9216H112.378L111.607 71.5223C111.2 73.4863 110.388 74.1409 108.601 74.1409C107.22 74.1409 106.002 73.4863 106.408 71.4405L107.139 67.9216H108.114Z" fill="white"/>
<path d="M115.83 71.4405L115.302 74.0182H114.368L115.668 67.9216H118.267C119.404 67.9216 120.135 68.5354 120.135 69.4765C120.135 70.3766 119.567 70.8676 118.836 71.0722C119.161 71.195 119.607 71.5632 119.404 72.627C119.283 73.2408 119.201 73.7318 119.242 74.0182H118.308C118.267 73.7318 118.308 73.3226 118.47 72.6679C118.633 71.8087 118.47 71.4405 117.577 71.4405H115.83ZM115.993 70.663H117.536C118.308 70.663 119.12 70.4585 119.12 69.5583C119.12 69.0264 118.755 68.699 118.024 68.699H116.399L115.993 70.663Z" fill="white"/>
<path d="M127.811 67.9216H128.746L127.649 73.1999H131.101L130.817 73.9773H126.552L127.811 67.9216Z" fill="white"/>
<path d="M135.731 67.9216L134.431 74.0182H133.497L134.797 67.9216H135.731Z" fill="white"/>
<path d="M139.143 67.9216H143.61L143.448 68.699H139.914L139.549 70.5403H142.838L142.676 71.3177H139.386L138.858 73.9773H137.924L139.143 67.9216Z" fill="white"/>
<path d="M149.946 71.1949H146.575L146.169 73.1998H150.027L149.743 73.9772H145.072L146.372 67.8806H150.839L150.677 68.658H147.144L146.778 70.3765H150.149L149.946 71.1949Z" fill="white"/>
<path d="M157.703 72.2178C157.825 72.9543 158.434 73.4044 159.449 73.4044C160.262 73.4044 161.033 73.118 161.033 72.3405C161.033 71.8086 160.709 71.4813 159.531 71.1949C158.028 70.8266 157.5 70.4175 157.5 69.5992C157.5 68.6172 158.353 67.7988 159.896 67.7988C161.805 67.7988 162.292 68.8217 162.333 69.5173H161.399C161.318 69.0672 161.033 68.5353 159.815 68.5353C159.003 68.5353 158.515 68.9036 158.515 69.4764C158.515 69.9674 158.84 70.172 159.977 70.4175C161.643 70.8266 162.049 71.3995 162.049 72.2178C162.049 73.3225 161.155 74.1409 159.368 74.1409C157.866 74.1409 156.891 73.5271 156.769 72.2178H157.703Z" fill="white"/>
<path d="M166.76 67.9216L165.46 74.0182H164.526L165.826 67.9216H166.76Z" fill="white"/>
<path d="M174.883 71.4405C175.126 70.3357 175.37 69.231 175.533 68.5763C175.126 69.4765 173.664 71.8905 172.446 74.0182H171.593C171.349 72.2997 170.943 69.5992 170.862 68.6172C170.74 69.3128 170.537 70.5812 170.293 71.645L169.806 74.0591H168.912L170.172 67.9216H171.552C171.837 69.8038 172.283 72.2997 172.283 72.7907C172.608 72.1769 174.111 69.722 175.167 67.9216H176.548L175.248 74.0182H174.314L174.883 71.4405Z" fill="white"/>
<path d="M179.919 67.9216H182.437C183.574 67.9216 184.427 68.4945 184.427 69.6401C184.427 70.9495 183.493 71.645 181.868 71.645H180.041L179.553 74.0182H178.619L179.919 67.9216ZM180.244 70.8676H181.868C182.762 70.8676 183.493 70.5812 183.493 69.681C183.493 69.0264 183.046 68.699 182.234 68.699H180.731L180.244 70.8676Z" fill="white"/>
<path d="M187.757 67.9216H188.691L187.595 73.1999H191.047L190.763 73.9773H186.498L187.757 67.9216Z" fill="white"/>
<path d="M198.357 71.1949H194.986L194.58 73.1998H198.439L198.154 73.9772H193.484L194.783 67.8806H199.251L199.088 68.658H195.555L195.19 70.3765H198.56L198.357 71.1949Z" fill="white"/>
</g>
<defs>
<clipPath id="clip0">
<rect width="203.922" height="100" fill="white"/>
</clipPath>
</defs>
</svg>
