<svg width="24" height="24" viewBox="0 0 24 24" fill="none" xmlns="http://www.w3.org/2000/svg">
<g clip-path="url(#clip0)">
<path d="M23.9999 11.9775C23.9599 18.6667 18.6377 24.06 11.8698 23.995C5.30209 23.935 0.0298939 18.6867 -0.000118653 12.0575C-0.0301312 5.34335 5.3271 -0.00999225 12.0299 1.40045e-05C18.6577 0.0100203 23.9449 5.33335 23.9999 11.9775ZM1.59054 12.0025C1.57054 17.6961 6.16745 22.304 11.7848 22.414C17.6772 22.5291 22.3392 17.7761 22.4042 12.1526C22.4742 6.34898 17.8323 1.69607 12.205 1.59101C6.30751 1.47594 1.55553 6.25892 1.59054 12.0025Z" fill="#1C1F33"/>
<path d="M9.594 7.53471C8.96374 8.1601 8.3735 8.75047 7.77825 9.33584C7.54815 9.56098 7.28304 9.65604 6.95791 9.55097C6.64778 9.45091 6.4727 9.23578 6.41268 8.93059C6.35765 8.66542 6.44269 8.43027 6.62777 8.24516C7.69321 7.17449 8.75866 6.10882 9.8291 5.04316C10.0692 4.80301 10.3593 4.73796 10.6795 4.86304C10.9996 4.98812 11.1547 5.23828 11.1947 5.56848C11.2047 5.63352 11.1997 5.70357 11.1997 5.76861C11.1997 9.93121 11.1997 14.0888 11.1997 18.2514C11.1997 18.6417 11.0846 18.9619 10.7145 19.132C10.2043 19.3621 9.64903 19.0069 9.60401 18.4315C9.59901 18.3415 9.59901 18.2464 9.59901 18.1564C9.59901 14.7192 9.59901 11.2871 9.59901 7.84991C9.594 7.75985 9.594 7.6698 9.594 7.53471Z" fill="#1C1F33"/>
<path d="M14.396 16.4703C15.0313 15.8349 15.6215 15.2495 16.2167 14.6592C16.4368 14.439 16.7019 14.349 17.0121 14.439C17.3222 14.5291 17.5023 14.7392 17.5773 15.0444C17.6423 15.3196 17.5573 15.5597 17.3672 15.7549C16.3018 16.8255 15.2363 17.8912 14.1659 18.9569C13.9358 19.187 13.6557 19.2671 13.3405 19.147C13.0104 19.0219 12.8453 18.7717 12.8053 18.4265C12.7953 18.3615 12.8003 18.2914 12.8003 18.2264C12.8003 14.0638 12.8003 9.90121 12.8003 5.74361C12.8003 5.26331 12.9904 4.95812 13.3556 4.83804C13.8608 4.67794 14.351 5.01816 14.396 5.5685C14.401 5.65355 14.401 5.7336 14.401 5.81866C14.401 9.26081 14.401 12.708 14.401 16.1501C14.396 16.2452 14.396 16.3302 14.396 16.4703Z" fill="#1C1F33"/>
</g>
<defs>
<clipPath id="clip0">
<rect width="24" height="24" fill="white"/>
</clipPath>
</defs>
</svg>
