<svg width="24" height="24" viewBox="0 0 24 24" fill="none" xmlns="http://www.w3.org/2000/svg">
<path d="M20.4853 3.51469C18.2188 1.24823 15.2053 0 12 0C8.79469 0 5.78123 1.24823 3.51469 3.51469C1.24823 5.78123 0 8.79469 0 12C0 15.2053 1.24823 18.2188 3.51469 20.4853C5.78123 22.7518 8.79469 24 12 24C15.2053 24 18.2188 22.7518 20.4853 20.4853C22.7518 18.2188 24 15.2053 24 12C24 8.79469 22.7518 5.78123 20.4853 3.51469ZM12 22.5938C6.15858 22.5938 1.40625 17.8414 1.40625 12C1.40625 6.15858 6.15858 1.40625 12 1.40625C17.8414 1.40625 22.5938 6.15858 22.5938 12C22.5938 17.8414 17.8414 22.5938 12 22.5938Z" fill="#2BBEF9"/>
<path d="M19.7 9.41222C19.6173 9.15768 19.3973 8.97215 19.1324 8.93367L14.6397 8.28084L12.6306 4.20979C12.5121 3.96979 12.2677 3.81787 12.0001 3.81787C11.7324 3.81787 11.488 3.96984 11.3695 4.20979L9.36038 8.28084L4.86769 8.93367C4.60285 8.97215 4.38282 9.15768 4.30013 9.41222C4.2174 9.66675 4.2864 9.94617 4.47802 10.133L7.72894 13.3019L6.96151 17.7764C6.91627 18.0401 7.02469 18.3067 7.24121 18.4641C7.45777 18.6214 7.74479 18.6421 7.98169 18.5176L12 16.405L16.0184 18.5176C16.1212 18.5717 16.2336 18.5984 16.3455 18.5984C16.4913 18.5984 16.6364 18.5531 16.7589 18.4641C16.9754 18.3067 17.0838 18.0402 17.0386 17.7764L16.2711 13.3019L19.522 10.133C19.7137 9.94622 19.7827 9.66679 19.7 9.41222ZM15.0248 12.5529C14.8591 12.7144 14.7835 12.9472 14.8226 13.1752L15.4117 16.6099L12.3272 14.9883C12.2248 14.9345 12.1124 14.9076 12 14.9076C11.8876 14.9076 11.7752 14.9345 11.6728 14.9883L8.5883 16.6099L9.17738 13.1753C9.21647 12.9472 9.14087 12.7145 8.97516 12.5529L6.47972 10.1205L9.92832 9.6194C10.1573 9.58612 10.3553 9.44226 10.4577 9.23475L12 6.10973L13.5422 9.2347C13.6447 9.44222 13.8427 9.58608 14.0716 9.61936L17.5202 10.1204L15.0248 12.5529Z" fill="#2BBEF9"/>
</svg>
