<svg width="24" height="24" viewBox="0 0 24 24" fill="none" xmlns="http://www.w3.org/2000/svg">
<g clip-path="url(#clip0)">
<path d="M22.1886 3.45929C19.8724 1.04527 15.7052 1.04377 13.3871 3.45563L12.3099 4.50222L11.1052 3.29756C8.56596 0.758236 4.43415 0.758236 1.89488 3.29756C-0.631581 5.72162 -0.631628 10.0839 1.89488 12.5079L2.01689 12.6299L1.77849 12.8684C0.869739 13.7403 0.869786 15.3092 1.77849 16.1811L1.79924 16.2018C2.23576 16.6383 2.81429 16.8808 3.43061 16.8873C3.43704 17.5036 3.67962 18.0821 4.11608 18.5186L4.13683 18.5393C4.58184 18.9842 5.17549 19.2291 5.80491 19.2252C5.82026 19.828 6.06157 20.3924 6.48954 20.8204L6.51029 20.8412C7.38224 21.7499 8.95107 21.7499 9.82297 20.8412L10.1364 20.5278L11.5386 21.9301C12.4406 22.832 13.9084 22.832 14.8105 21.93C15.2526 21.4879 15.4774 20.91 15.4862 20.3293C16.6852 20.3354 17.743 19.3 17.7614 18.1002C19.4724 18.0818 20.5064 16.1605 19.5905 14.7217L22.1746 12.2781C24.6031 9.96395 24.6092 5.78134 22.1886 3.45929ZM4.11599 15.2059C3.76835 15.5683 3.14273 15.5683 2.79509 15.2059L2.77434 15.1852C2.412 14.8375 2.412 14.212 2.77434 13.8643L4.06745 12.5711C4.43175 12.2068 5.02432 12.2071 5.38863 12.5714L5.40915 12.5919C5.77327 12.956 5.77331 13.5485 5.40933 13.9127L4.11599 15.2059ZM6.45358 17.5435C6.10593 17.9059 5.48032 17.9058 5.13267 17.5435L5.11192 17.5228C4.74959 17.1751 4.74963 16.5495 5.11192 16.2018L7.22562 14.0882C7.5735 13.7257 8.19883 13.7258 8.54681 14.0884L8.56732 14.109C8.92966 14.4566 8.92961 15.0822 8.56732 15.4299L6.45358 17.5435ZM9.66532 19.0071L8.82699 19.8453C8.47911 20.2078 7.85377 20.2077 7.5058 19.845L7.48519 19.8244C7.12295 19.4768 7.12304 18.8512 7.48529 18.5036L8.32362 17.6654C8.6715 17.3029 9.29683 17.303 9.6448 17.6657L9.66532 17.6862C10.0277 18.0338 10.0277 18.6594 9.66532 19.0071ZM18.2888 16.4599C17.9789 16.7697 17.4749 16.7698 17.165 16.4599L15.7679 15.0628C15.493 14.7879 15.0471 14.7879 14.772 15.0628C14.497 15.3378 14.497 15.7837 14.772 16.0587L16.0909 17.3776C16.905 18.2622 15.6945 19.4715 14.8108 18.6578L13.4988 17.3459C13.2239 17.0709 12.778 17.0709 12.5029 17.3459C12.2279 17.6208 12.2279 18.0667 12.5029 18.3417L13.8081 19.6469C13.8103 19.6492 13.8122 19.6518 13.8145 19.6541C14.1675 20.007 14.1675 20.5813 13.8145 20.9342C13.4616 21.2873 12.8873 21.2871 12.5344 20.9343L11.0644 19.4643C11.5575 18.5838 11.3903 17.3962 10.6609 16.6901L10.6404 16.6696C10.401 16.4302 10.1186 16.2496 9.811 16.1336C10.4756 15.241 10.3686 13.8885 9.56288 13.1128L9.54237 13.0923C8.89407 12.4266 7.84434 12.2224 6.99258 12.582C6.8853 12.2208 6.68939 11.8805 6.4047 11.5958L6.38419 11.5753C5.47088 10.662 3.98487 10.6621 3.07146 11.5753L3.01264 11.6341L2.89067 11.5121C0.90049 9.52194 0.90049 6.28372 2.89067 4.29354C4.8809 2.30341 8.11912 2.30341 10.1093 4.29354L11.2996 5.48384L9.04219 7.67702C8.03424 8.61173 8.0202 10.3298 9.01257 11.2809C9.99813 12.2664 11.6017 12.2664 12.5873 11.2809L13.3659 10.5023C13.3903 10.4778 13.4302 10.4778 13.4547 10.5023L18.2887 15.3362C18.597 15.632 18.597 16.1641 18.2888 16.4599ZM21.1995 11.2618L18.6331 13.6887L14.4507 9.50631C13.9031 8.93557 12.9177 8.93557 12.3701 9.50631L11.5915 10.2849C11.1551 10.7213 10.445 10.7213 10.0086 10.2848C9.56884 9.86287 9.57528 9.10294 10.0227 8.68807L14.3722 4.46227C19.0712 0.119615 25.5214 6.5493 21.1995 11.2618Z" fill="#2BBEF9"/>
</g>
<defs>
<clipPath id="clip0">
<rect width="24" height="24" fill="white"/>
</clipPath>
</defs>
</svg>
