<svg width="24" height="24" viewBox="0 0 24 24" fill="none" xmlns="http://www.w3.org/2000/svg">
<path d="M20.5385 2.0769H3.46153C1.55283 2.0769 0 3.62973 0 5.53844V18.4615C0 20.3702 1.55283 21.923 3.46153 21.923H20.5385C22.4472 21.923 24 20.3702 24 18.4615V5.53844C24 3.62973 22.4472 2.0769 20.5385 2.0769ZM22.6154 14.0769H17.5385C16.3933 14.0769 15.4615 13.1452 15.4615 12C15.4615 10.8547 16.3932 9.92303 17.5385 9.92303H22.6154V14.0769ZM22.6154 8.53844H17.5385C15.6298 8.53844 14.0769 10.0913 14.0769 12C14.0769 13.9087 15.6298 15.4615 17.5385 15.4615H22.6154V18.4615C22.6154 19.6067 21.6837 20.5384 20.5385 20.5384H3.46153C2.31633 20.5384 1.38459 19.6067 1.38459 18.4615V5.53844C1.38459 4.39323 2.31628 3.4615 3.46153 3.4615H20.5385C21.6837 3.4615 22.6154 4.39319 22.6154 5.53844V8.53844Z" fill="#2BBEF9"/>
<path d="M18.4615 11.3079H17.5385C17.1561 11.3079 16.8462 11.6178 16.8462 12.0002C16.8462 12.3825 17.1561 12.6925 17.5385 12.6925H18.4615C18.8439 12.6925 19.1538 12.3825 19.1538 12.0002C19.1538 11.6178 18.8439 11.3079 18.4615 11.3079Z" fill="#2BBEF9"/>
</svg>
